<svg width="39" height="39" viewBox="0 0 39 39" fill="none" xmlns="http://www.w3.org/2000/svg">
<path d="M15.8333 23.1667L19.5 19.5M19.5 19.5L23.1667 15.8333M19.5 19.5L15.8333 15.8333M19.5 19.5L23.1667 23.1667M36 19.5C36 21.6668 35.5732 23.8124 34.744 25.8143C33.9148 27.8161 32.6994 29.6351 31.1673 31.1673C29.6351 32.6994 27.8161 33.9148 25.8143 34.744C23.8124 35.5732 21.6668 36 19.5 36C17.3332 36 15.1876 35.5732 13.1857 34.744C11.1839 33.9148 9.3649 32.6994 7.83274 31.1673C6.30057 29.6351 5.08519 27.8161 4.25599 25.8143C3.42678 23.8124 3 21.6668 3 19.5C3 15.1239 4.73839 10.9271 7.83274 7.83274C10.9271 4.73839 15.1239 3 19.5 3C23.8761 3 28.0729 4.73839 31.1673 7.83274C34.2616 10.9271 36 15.1239 36 19.5Z" stroke="#D99C2B" stroke-width="5" stroke-linecap="round" stroke-linejoin="round"/>
</svg>
