<svg width="47" height="39" viewBox="0 0 47 39" fill="none" xmlns="http://www.w3.org/2000/svg">
<path d="M3 3H7.55556L8.46667 6.66667M8.46667 6.66667H44L34.8889 21.3333H12.1111M8.46667 6.66667L12.1111 21.3333M12.1111 21.3333L6.88817 25.5372C5.45317 26.6922 6.46906 28.6667 8.49856 28.6667H34.8889M34.8889 28.6667C33.6807 28.6667 32.522 29.053 31.6676 29.7406C30.8133 30.4282 30.3333 31.3609 30.3333 32.3333C30.3333 33.3058 30.8133 34.2384 31.6676 34.9261C32.522 35.6137 33.6807 36 34.8889 36C36.0971 36 37.2558 35.6137 38.1102 34.9261C38.9645 34.2384 39.4444 33.3058 39.4444 32.3333C39.4444 31.3609 38.9645 30.4282 38.1102 29.7406C37.2558 29.053 36.0971 28.6667 34.8889 28.6667ZM16.6667 32.3333C16.6667 33.3058 16.1867 34.2384 15.3324 34.9261C14.478 35.6137 13.3193 36 12.1111 36C10.9029 36 9.74418 35.6137 8.88985 34.9261C8.03551 34.2384 7.55556 33.3058 7.55556 32.3333C7.55556 31.3609 8.03551 30.4282 8.88985 29.7406C9.74418 29.053 10.9029 28.6667 12.1111 28.6667C13.3193 28.6667 14.478 29.053 15.3324 29.7406C16.1867 30.4282 16.6667 31.3609 16.6667 32.3333Z" stroke="#D99C2B" stroke-width="5" stroke-linecap="round" stroke-linejoin="round"/>
</svg>
