<svg width="41" height="33" viewBox="0 0 41 33" fill="none" xmlns="http://www.w3.org/2000/svg">
<path d="M2.56259 0C1.88295 0 1.23114 0.204516 0.750564 0.568557C0.269986 0.932599 0 1.42634 0 1.94118C0 2.45601 0.269986 2.94975 0.750564 3.3138C1.23114 3.67784 1.88295 3.88235 2.56259 3.88235H5.68894L6.47053 6.25447C6.47829 6.28178 6.48684 6.30897 6.49615 6.336L9.97615 16.8766L7.68776 18.6081C4.4589 21.054 6.74473 25.2353 11.3113 25.2353H33.3136C33.9933 25.2353 34.6451 25.0308 35.1256 24.6667C35.6062 24.3027 35.8762 23.8089 35.8762 23.2941C35.8762 22.7793 35.6062 22.2855 35.1256 21.9215C34.6451 21.5575 33.9933 21.3529 33.3136 21.3529H11.3113L13.8738 19.4118H30.751C31.2268 19.4116 31.6931 19.311 32.0977 19.1215C32.5024 18.9319 32.8293 18.6607 33.042 18.3383L40.7297 6.69124C40.9249 6.39536 41.0171 6.06661 40.9974 5.73619C40.9778 5.40576 40.847 5.08462 40.6175 4.80324C40.388 4.52185 40.0674 4.28955 39.6861 4.12839C39.3048 3.96722 38.8754 3.88253 38.4388 3.88235H10.9679L10.1735 1.46947C10.0346 1.0497 9.71464 0.677099 9.26428 0.41086C8.81392 0.144622 8.25903 1.13761e-05 7.68776 0H2.56259ZM35.8762 30.0882C35.8762 30.8605 35.4712 31.6011 34.7504 32.1472C34.0295 32.6932 33.0518 33 32.0323 33C31.0129 33 30.0352 32.6932 29.3143 32.1472C28.5934 31.6011 28.1884 30.8605 28.1884 30.0882C28.1884 29.316 28.5934 28.5754 29.3143 28.0293C30.0352 27.4832 31.0129 27.1765 32.0323 27.1765C33.0518 27.1765 34.0295 27.4832 34.7504 28.0293C35.4712 28.5754 35.8762 29.316 35.8762 30.0882ZM11.5316 33C12.5511 33 13.5288 32.6932 14.2497 32.1472C14.9705 31.6011 15.3755 30.8605 15.3755 30.0882C15.3755 29.316 14.9705 28.5754 14.2497 28.0293C13.5288 27.4832 12.5511 27.1765 11.5316 27.1765C10.5122 27.1765 9.53447 27.4832 8.8136 28.0293C8.09274 28.5754 7.68776 29.316 7.68776 30.0882C7.68776 30.8605 8.09274 31.6011 8.8136 32.1472C9.53447 32.6932 10.5122 33 11.5316 33Z" fill="#D99C2B"/>
</svg>
