<svg width="35" height="39" viewBox="0 0 35 39" fill="none" xmlns="http://www.w3.org/2000/svg">
<path d="M3 4.83333C3 4.3471 3.16974 3.88079 3.47188 3.53697C3.77403 3.19315 4.18382 3 4.61111 3H30.3889C30.8162 3 31.226 3.19315 31.5281 3.53697C31.8303 3.88079 32 4.3471 32 4.83333V9.57433C31.9999 10.0605 31.8301 10.5268 31.5279 10.8705L21.1943 22.6295C20.8921 22.9732 20.7223 23.4395 20.7222 23.9257V28.6667L14.2778 36V23.9257C14.2777 23.4395 14.1079 22.9732 13.8057 22.6295L3.47206 10.8705C3.16989 10.5268 3.00009 10.0605 3 9.57433V4.83333Z" stroke="#D99C2B" stroke-width="5" stroke-linecap="round" stroke-linejoin="round"/>
</svg>
