<svg width="31" height="32" viewBox="0 0 31 32" fill="none" xmlns="http://www.w3.org/2000/svg">
<path d="M3 4.44444C3 4.06135 3.14633 3.69395 3.4068 3.42307C3.66726 3.15218 4.02053 3 4.38889 3H26.6111C26.9795 3 27.3327 3.15218 27.5932 3.42307C27.8537 3.69395 28 4.06135 28 4.44444V8.17978C27.9999 8.56284 27.8535 8.93018 27.5931 9.201L18.6847 18.4657C18.4242 18.7365 18.2779 19.1038 18.2778 19.4869V23.2222L12.7222 29V19.4869C12.7221 19.1038 12.5758 18.7365 12.3153 18.4657L3.40694 9.201C3.14646 8.93018 3.00008 8.56284 3 8.17978V4.44444Z" stroke="#D99C2B" stroke-width="5" stroke-linecap="round" stroke-linejoin="round"/>
</svg>
