<svg width="37" height="39" viewBox="0 0 37 39" fill="none" xmlns="http://www.w3.org/2000/svg">
<path d="M34 36L23.6667 25M27.1111 15.8333C27.1111 17.5186 26.7993 19.1874 26.1934 20.7444C25.5876 22.3015 24.6996 23.7162 23.5801 24.9079C22.4607 26.0996 21.1317 27.0449 19.669 27.6898C18.2064 28.3347 16.6387 28.6667 15.0556 28.6667C13.4724 28.6667 11.9047 28.3347 10.4421 27.6898C8.97945 27.0449 7.65045 26.0996 6.53099 24.9079C5.41153 23.7162 4.52352 22.3015 3.91767 20.7444C3.31183 19.1874 3 17.5186 3 15.8333C3 12.4297 4.27014 9.16551 6.53099 6.7588C8.79185 4.35208 11.8582 3 15.0556 3C18.2529 3 21.3193 4.35208 23.5801 6.7588C25.841 9.16551 27.1111 12.4297 27.1111 15.8333Z" stroke="#D99C2B" stroke-width="5" stroke-linecap="round" stroke-linejoin="round"/>
</svg>
