<svg width="59" height="59" viewBox="0 0 59 59" fill="none" xmlns="http://www.w3.org/2000/svg">
<path fill-rule="evenodd" clip-rule="evenodd" d="M30.5227 58.4237C38.2489 58.2375 45.5853 55.0182 50.9181 49.4741C56.2509 43.93 59.1432 36.5152 58.9587 28.8608C58.7742 21.2064 55.5281 13.9395 49.9344 8.65877C44.3408 3.37799 36.8577 0.515891 29.1316 0.7021C21.4054 0.88831 14.069 4.10758 8.73617 9.6517C3.40339 15.1958 0.5111 22.6106 0.695579 30.265C0.880058 37.9194 4.12619 45.1862 9.71987 50.467C15.3135 55.7478 22.7966 58.6099 30.5227 58.4237ZM18.8159 26.2186C19.7816 26.1953 20.6987 25.7929 21.3653 25.0999C22.0319 24.4069 22.3934 23.48 22.3704 22.5232C22.3473 21.5664 21.9415 20.6581 21.2423 19.998C20.5431 19.3379 19.6077 18.9801 18.642 19.0034C17.6762 19.0267 16.7591 19.4291 16.0925 20.1221C15.4259 20.8151 15.0644 21.742 15.0875 22.6988C15.1105 23.6555 15.5163 24.5639 16.2155 25.224C16.9147 25.8841 17.8501 26.2419 18.8159 26.2186ZM44.219 21.9966C44.2421 22.9534 43.8806 23.8803 43.214 24.5733C42.5474 25.2663 41.6303 25.6687 40.6645 25.692C39.6988 25.7153 38.7634 25.3575 38.0642 24.6974C37.365 24.0373 36.9592 23.129 36.9361 22.1722C36.9131 21.2154 37.2746 20.2885 37.9412 19.5955C38.6078 18.9025 39.5249 18.5001 40.4906 18.4768C41.4564 18.4535 42.3918 18.8113 43.091 19.4714C43.7902 20.1315 44.196 21.0399 44.219 21.9966ZM43.0107 42.0054C43.3407 41.6621 43.5992 41.2578 43.7715 40.8155C43.9439 40.3733 44.0266 39.9017 44.015 39.4279C44.0034 38.954 43.8977 38.4871 43.704 38.0538C43.5103 37.6205 43.2323 37.2293 42.8859 36.9025C42.5395 36.5757 42.1314 36.3198 41.6851 36.1492C41.2388 35.9787 40.7629 35.897 40.2846 35.9087C39.8063 35.9203 39.335 36.0253 38.8975 36.2174C38.4601 36.4095 38.0651 36.6851 37.7351 37.0285C35.7354 39.1068 32.9847 40.3136 30.0879 40.3834C27.1912 40.4532 24.3856 39.3804 22.2881 37.4008C21.5889 36.7403 20.6535 36.3821 19.6875 36.4051C18.7216 36.428 17.8042 36.8302 17.1372 37.5231C16.4702 38.216 16.1083 39.1429 16.131 40.0999C16.1537 41.0569 16.5592 41.9656 17.2584 42.6261C18.9895 44.2608 21.0289 45.5415 23.2601 46.3951C25.4912 47.2486 27.8705 47.6583 30.2619 47.6007C32.6533 47.543 35.01 47.0192 37.1975 46.0592C39.385 45.0991 41.3603 43.7217 43.0107 42.0054Z" fill="#BF7315"/>
</svg>
