<svg width="42" height="39" viewBox="0 0 42 39" fill="none" xmlns="http://www.w3.org/2000/svg">
<path d="M5.63607 5.83098C4.80033 6.7285 4.13739 7.79401 3.68509 8.96668C3.23279 10.1394 3 11.3962 3 12.6655C3 13.9348 3.23279 15.1917 3.68509 16.3643C4.13739 17.537 4.80033 18.6025 5.63607 19.5L21 36L36.364 19.5C38.0518 17.6874 39 15.229 39 12.6655C39 10.1021 38.0518 7.64361 36.364 5.83098C34.6761 4.01835 32.3869 3.00002 30 3.00002C27.613 3.00002 25.3238 4.01835 23.636 5.83098L21 8.66188L18.364 5.83098C17.5283 4.93345 16.5361 4.22149 15.4442 3.73575C14.3523 3.25001 13.1819 3 12 3C10.8181 3 9.64781 3.25001 8.55588 3.73575C7.46395 4.22149 6.47179 4.93345 5.63607 5.83098Z" stroke="#D99C2B" stroke-width="5" stroke-linecap="round" stroke-linejoin="round"/>
</svg>
